<svg width="134" height="189" viewBox="0 0 134 189" fill="none" xmlns="http://www.w3.org/2000/svg">
    <g clip-path="url(#clip0_93_267)">
        <path d="M46.4974 122.65L61.8264 115.796L68.4165 107.784L39.9846 85.0341L47.1506 40.1739L93.8219 32.8903L102.07 101.687L83.1039 109.276L102.07 123.103L74.9331 136.519L46.4974 122.65Z"
              fill="white"/>
        <path d="M42.7947 109.121C46.8531 111.436 53.3504 110.455 57.1034 106.757C61.7222 111.11 68.4321 109.164 68.4321 109.164V102.404L58.4523 95.0001L52.7126 85.0962L45.1138 83.3557L42.7908 76.1729L45.6549 70.6027H50.6486L57.5943 62.0206L62.8045 42.6431L71.9223 38.7241L82.4818 42.426L90.1579 53.7486L93.9574 78.5685L96.2378 89.4143L87.2668 99.357L82.4818 102.295L83.1041 109.28C90.4865 110.37 99.469 109.296 101.9 106.544C105.897 107.85 113.496 106.687 115.884 103.95C118.273 101.21 122.289 92.1394 122.289 92.1394L116.537 77.049L111.219 46.4612L100.149 28.6109L87.2746 20.773L72.5832 19.6838L55.6501 29.4792L49.1374 29.5877L39.4784 41.5616L35.2461 60.1755V81.9447L31.2109 96.6397L37.4145 105.722L42.7986 109.129L42.7947 109.121Z"
              fill="#F6BCAA"/>
        <path d="M20.7479 182.697C35.2112 187.903 94.7032 193.884 129.972 182.511C131.812 168.308 131.955 152.85 131.955 152.85L123.811 136.015L109.089 125.565L99.9714 122.371L76.3516 129.336L60.2611 125.851L50.3316 122.65L33.6884 130.204L22.2553 143.702L17.9148 163.44L20.7479 182.693V182.697Z"
              fill="#FBE4AE"/>
        <path d="M130.247 182.697C129.126 182.05 129.076 181.077 129.296 179.926C130.386 174.204 131.008 168.436 130.823 162.606C130.629 156.478 129.752 150.485 127.193 144.845C124.275 138.418 119.614 133.592 113.642 129.949C110.152 127.821 106.418 126.196 102.762 124.402C101.502 123.781 100.3 123.712 99.0669 124.169C97.2966 124.828 95.5419 125.537 93.8257 126.324C90.0573 128.057 86.1844 129.445 82.0874 130.154C78.5508 130.767 74.9949 130.856 71.4235 130.472C66.1244 129.906 61.208 128.123 56.4114 125.886C54.8614 125.161 53.2342 124.584 51.6147 124.037C50.6407 123.708 49.6783 123.816 48.685 124.297C44.8314 126.162 40.9045 127.875 37.2519 130.146C31.0793 133.984 26.3832 139.101 23.5771 145.876C22.1316 149.373 21.3006 153.02 20.8329 156.769C20.3111 160.971 20.1797 165.188 20.5507 169.394C20.8638 172.968 21.4706 176.514 21.9422 180.073C21.9808 180.36 22.0349 180.643 22.0465 180.93C22.0852 181.868 21.5634 182.399 20.7401 182.697H20.2802C18.966 182.034 18.9351 180.713 18.6916 179.519C17.4393 173.379 16.9871 167.173 17.3118 160.916C17.6248 154.834 18.6916 148.908 21.2774 143.337C24.5318 136.321 29.6686 131.053 36.2315 127.1C40.0116 124.824 44.0352 123.037 48.0279 121.188C51.5529 119.556 55.0817 117.921 58.3362 115.769C61.0263 113.99 63.5116 111.967 65.3321 109.249C66.2133 107.935 66.9245 106.532 67.0134 104.908C67.0443 104.357 67.0018 103.795 66.9399 103.245C66.9245 103.098 66.7506 102.908 66.5998 102.842C60.1914 99.9191 55.8393 94.969 52.782 88.7398C52.7356 88.6429 52.6776 88.5499 52.6235 88.453C52.5617 88.4414 52.4998 88.4298 52.4341 88.4181C52.0631 89.7554 51.607 91.0773 51.3442 92.4378C50.8378 95.0737 51.2939 97.5894 52.8091 99.8105C53.3888 100.656 54.2933 101.284 55.0624 101.993C55.2557 102.171 55.5224 102.272 55.7311 102.435C56.1988 102.799 56.3998 103.288 56.222 103.865C56.0442 104.443 55.5919 104.819 55.016 104.757C54.3319 104.683 53.5898 104.547 53.01 104.206C51.0736 103.074 49.9141 101.276 49.1024 99.2291C47.537 95.2947 48.1052 91.4726 49.7247 87.7088C49.8522 87.4142 49.9914 87.1234 50.1537 86.7785C48.6077 86.6428 47.2008 86.2125 45.8943 85.4528C41.7509 83.0301 39.8609 77.5955 41.7123 73.413C42.8757 70.7888 45.2721 69.2189 48.0743 69.2925C48.5845 69.308 49.0869 69.498 49.5971 69.5484C49.8677 69.5755 50.204 69.5677 50.4204 69.4321C51.7848 68.5793 52.7549 67.3272 53.6323 66.0132C56.7322 61.3771 58.742 56.2992 59.6774 50.7949C59.8088 50.0196 59.8513 49.2289 59.9402 48.4458C59.9634 48.2365 59.9943 48.0272 60.0484 47.8218C60.2571 47.0155 60.7519 46.562 61.4128 46.562C62.0622 46.562 62.6922 47.0155 62.7927 47.8024C62.9009 48.6668 62.9009 49.5738 62.7772 50.4344C61.865 56.7489 59.573 62.5362 55.9746 67.7924C54.8614 69.4166 53.5782 70.9012 51.8466 71.9168C50.8572 72.4982 49.8909 72.7889 48.6888 72.4401C46.7485 71.878 44.7889 73.2851 44.2517 75.4558C43.3511 79.1189 46.0528 83.1309 49.7865 83.5999C50.5866 83.7007 51.4253 83.6154 52.2332 83.5146C53.1878 83.3945 53.7406 83.6735 54.1116 84.5186C56.0171 88.8794 58.2975 92.9883 61.9153 96.1978C65.3475 99.2407 69.2938 101.156 73.8508 101.78C77.2792 102.249 80.464 101.357 83.5368 99.9811C86.8879 98.4848 89.7094 96.2599 91.9512 93.3449C93.0682 91.8874 94.0654 90.3369 95.0819 88.8058C95.2133 88.6119 95.2404 88.2514 95.1592 88.0266C94.104 85.1078 93.4431 82.0959 93.13 79.0142C92.7976 75.762 92.5387 72.5021 92.2063 69.246C91.5569 62.9238 90.2698 56.7721 87.1661 51.1399C85.0596 47.3178 82.3154 44.085 78.431 41.9608C76.1389 40.7049 73.6962 39.9994 71.064 40.139C68.6986 40.2669 66.565 41.0228 64.818 42.6779C64.4353 43.0423 64.13 43.4997 63.8401 43.9455C63.4034 44.6083 62.7618 44.8758 62.124 44.6044C61.4785 44.3331 61.1616 43.6121 61.4012 42.8601C61.7259 41.8368 62.3946 41.0383 63.1869 40.356C66.1321 37.8054 69.5876 36.9023 73.3986 37.3364C78.6242 37.9334 82.7251 40.6157 86.138 44.4765C89.8369 48.6629 92.0246 53.6362 93.474 58.9738C94.4596 62.5982 95.0007 66.2961 95.3409 70.0329C95.654 73.4401 95.9091 76.8629 96.3883 80.2469C96.9758 84.3945 98.1083 88.391 100.64 91.8448C101.529 93.058 102.592 94.0542 104.022 94.6163C104.81 94.9264 105.158 95.5582 105.015 96.2366C104.868 96.9188 104.242 97.3685 103.404 97.353C102.252 97.3297 101.324 96.7483 100.451 96.0699C98.9393 94.8915 97.8648 93.3488 96.8831 91.713C96.2453 92.6316 95.6037 93.5387 94.9892 94.4613C94.9157 94.5698 94.9466 94.7869 94.9892 94.9342C95.5496 96.7521 95.4336 98.5391 94.7688 100.303C94.6413 100.64 94.4558 100.966 94.2316 101.249C93.8026 101.795 93.1919 101.946 92.6392 101.706C92.0787 101.462 91.7734 100.865 91.8893 100.167C91.9821 99.6012 92.129 99.043 92.2449 98.4771C92.3029 98.198 92.3338 97.9111 92.3918 97.5274C92.2179 97.6592 92.1096 97.7212 92.0246 97.8026C89.8485 99.8687 87.4328 101.574 84.6963 102.822C84.4953 102.915 84.3059 103.226 84.2634 103.458C83.9078 105.52 84.6577 107.307 85.7244 108.993C87.3053 111.498 89.5045 113.385 91.8739 115.079C95.0046 117.32 98.4716 118.956 101.927 120.607C105.688 122.405 109.491 124.123 113.171 126.08C119.061 129.212 124.016 133.445 127.642 139.135C130.274 143.264 131.944 147.764 132.887 152.551C133.984 158.118 134.193 163.738 133.841 169.39C133.598 173.293 133.068 177.15 132.226 180.964C132.029 181.864 131.534 182.403 130.711 182.697H130.251H130.247ZM81.2216 104.067C77.4647 105.222 73.7542 105.199 70.0011 104.082C70.1132 107.11 68.9266 109.567 67.2492 111.831C65.0847 114.746 62.3018 116.975 59.2522 118.878C57.6907 119.855 56.0596 120.719 54.4633 121.63C56.0248 122.316 57.6018 122.995 59.1672 123.7C63.5425 125.669 68.0802 127.049 72.8806 127.417C77.9749 127.813 82.9493 127.146 87.742 125.386C90.6795 124.309 93.5359 123.002 96.427 121.797C96.5507 121.746 96.6743 121.684 96.829 121.611C95.7931 121.053 94.8075 120.545 93.8451 119.994C90.2003 117.921 86.8337 115.486 84.2248 112.141C82.4082 109.807 81.1134 107.249 81.2293 104.063L81.2216 104.067Z"
              fill="#F4F6FA"/>
        <path d="M-0.000123377 23.8314C0.254975 22.8817 0.459826 21.9165 0.769036 20.9824C1.9479 17.42 3.90752 14.288 6.21886 11.373C9.30323 7.489 12.8244 4.07399 17.161 1.61255C18.2819 0.976837 19.5381 0.585332 20.7363 0.0930436C20.9063 0.0232704 21.1112 0.0116415 21.3006 0.00388895C22.1432 -0.0426265 22.7693 0.391518 22.9046 1.09313C23.0322 1.7676 22.6263 2.36067 21.834 2.65915C21.4397 2.80644 21.0377 2.92661 20.6512 3.08554C18.4133 4.01197 16.4576 5.3958 14.6255 6.9502C10.5014 10.4582 7.06532 14.5322 4.65735 19.4202C3.85727 21.0405 3.26204 22.7267 3.04559 24.5485C2.76344 26.9131 4.10464 28.6729 6.46623 28.7814C7.56779 28.8318 8.67708 28.6458 9.78251 28.5838C10.1342 28.5644 10.1652 28.3861 10.1613 28.0953C10.0608 23.3624 11.5952 19.1876 14.5366 15.5362C16.4421 13.1716 18.7805 11.373 21.7799 10.5978C24.4313 9.91168 26.7697 11.0358 27.4925 13.3189C27.8674 14.5167 27.7863 15.7145 27.4809 16.9045C26.8741 19.2613 25.5909 21.2576 24.0487 23.0949C21.3586 26.3006 18.0655 28.6962 14.2351 30.3552C14.0999 30.4134 13.9646 30.4831 13.8332 30.549C14.7685 33.1888 17.9727 34.5804 21.1614 33.8555C21.3779 32.4833 21.4475 31.1227 21.8185 29.8552C22.6147 27.165 24.1685 24.9943 26.7118 23.657C27.7747 23.0988 28.9226 22.8585 30.1092 23.0755C32.1307 23.4477 33.4023 25.3199 33.1433 27.3821C32.8341 29.8397 31.4504 31.6538 29.6261 33.1345C28.3699 34.154 26.9514 34.968 25.5909 35.8867C26.3716 36.6193 27.4423 36.9023 28.5709 37.0186C30.0048 37.1659 31.3924 36.9449 32.7684 36.5379C33.151 36.4255 33.553 36.348 33.9473 36.3402C34.4845 36.3325 34.9097 36.596 35.1455 37.0922C35.3812 37.5961 35.3232 38.1155 34.9522 38.4915C34.5811 38.8637 34.1444 39.2474 33.6612 39.4141C30.7933 40.4142 27.9293 40.5033 25.1 39.2242C24.0603 38.7513 23.2254 38.0303 22.5877 37.0883C22.4292 36.8519 22.2939 36.7899 21.9847 36.848C19.0936 37.3868 16.3378 37.1 13.8486 35.3789C12.4494 34.4098 11.5141 33.0686 10.8647 31.5259C10.0105 31.6421 9.18341 31.8011 8.34855 31.8592C5.92125 32.0375 3.64082 31.6732 1.79329 29.8823C0.87726 28.9946 0.390254 27.886 0.111965 26.6611C0.0887745 26.5603 0.0307976 26.4712 -0.0117188 26.3743V23.8314H-0.000123377ZM13.2109 27.417C13.323 27.3937 13.3964 27.3937 13.4621 27.3627C17.5669 25.444 20.9682 22.6957 23.3723 18.8078C24.1105 17.6139 24.698 16.3386 24.671 14.8772C24.6516 13.8306 24.0719 13.3461 23.0322 13.4817C21.7876 13.6445 20.6899 14.1795 19.6772 14.885C16.9175 16.8076 15.1396 19.459 14.0496 22.6104C13.5124 24.157 13.1799 25.7424 13.207 27.4209L13.2109 27.417ZM24.3734 32.8903C26.5069 31.8127 28.3622 30.6149 29.5256 28.6109C29.8309 28.0876 29.9701 27.4402 30.0667 26.8317C30.1401 26.3743 29.8232 26.0254 29.3323 26.1223C28.7641 26.2386 28.138 26.3471 27.678 26.665C25.5677 28.1264 24.5821 30.2273 24.3772 32.8864L24.3734 32.8903Z"
              fill="#7085EC"/>
        <path d="M79.1501 18.079C86.4397 18.1449 92.4886 20.4087 97.8341 24.5912C103.96 29.3861 108.154 35.6308 111.084 42.771C112.668 46.6317 113.731 50.6553 114.327 54.7874C114.887 58.687 115.355 62.5982 115.838 66.5055C116.356 70.6996 116.916 74.8899 118.721 78.7739C119.626 80.7198 120.658 82.6037 121.636 84.5147C122.59 86.3831 123.394 88.298 123.684 90.4028C124.059 93.1317 123.564 95.721 122.443 98.2057C121.493 100.322 120.182 102.179 118.369 103.648C117.573 104.295 116.696 104.811 115.668 104.985C114.744 105.144 114.095 104.838 113.851 104.164C113.615 103.516 113.909 102.927 114.756 102.446C117.326 100.993 119.003 98.7988 120.043 96.0699C121.156 93.1511 121.013 90.271 119.684 87.4684C118.799 85.6001 117.828 83.7705 116.874 81.937C115.076 78.4871 113.948 74.8201 113.422 70.9709C112.958 67.5637 112.564 64.1448 112.154 60.7298C111.497 55.2526 110.581 49.8336 108.587 44.6548C106.252 38.604 102.886 33.2198 98.1356 28.7737C94.1004 24.9982 89.439 22.3313 83.9544 21.4398C76.1507 20.1683 69.0119 21.901 62.6499 26.665C62.1165 27.0642 61.6604 27.572 61.1811 28.0449C60.3578 28.8512 59.5848 29.014 59.0051 28.483C58.4639 27.9907 58.5142 27.2542 59.1906 26.3626C60.6787 24.409 62.6615 23.06 64.7718 21.8933C68.2582 19.9629 71.9996 18.7884 75.9498 18.3038C77.1673 18.1527 78.4002 18.1217 79.1539 18.0713L79.1501 18.079Z"
              fill="#F4F6FA"/>
        <path d="M34.4847 74.1263C34.3649 69.7383 34.0943 65.3465 34.1562 60.9624C34.2876 51.8609 36.7574 43.4299 41.8864 35.8634C43.8113 33.0221 46.1574 30.5684 49.1065 28.7582C50.4438 27.9364 51.8739 27.3627 53.4586 27.2503C54.5756 27.1728 55.6424 27.3433 56.5816 28.0023C57.231 28.4558 57.4358 29.1962 57.1189 29.8242C56.8135 30.4366 56.1062 30.77 55.3989 30.487C53.8065 29.8436 52.388 30.3126 51.0236 31.084C48.4687 32.5298 46.4743 34.5998 44.7621 36.9527C41.4535 41.4995 39.3857 46.6007 38.1605 52.0624C37.1323 56.6403 36.9584 61.2764 37.1942 65.9473C37.3604 69.2344 37.4841 72.5253 37.5845 75.8163C37.7005 79.7081 36.7883 83.4293 35.6829 87.1273C35.0799 89.143 34.504 91.178 34.1253 93.2441C33.1397 98.5973 35.0877 102.559 39.8804 105.125C40.9395 105.691 42.0758 106.113 43.1697 106.613C43.533 106.78 43.904 106.947 44.2364 107.168C44.6655 107.455 44.8858 107.881 44.7505 108.416C44.6152 108.947 44.2171 109.284 43.7108 109.261C42.8218 109.218 41.8942 109.183 41.067 108.904C36.6376 107.412 33.2633 104.687 31.5627 100.206C30.5771 97.6166 30.5925 94.9109 31.2148 92.2518C31.8719 89.4376 32.6642 86.6544 33.4605 83.8751C34.3726 80.6811 34.705 77.4327 34.4924 74.1263H34.4847Z"
              fill="#F4F6FA"/>
        <path d="M112.189 93.8992C112.154 99.2601 109.518 102.958 104.884 105.369C104.467 105.586 103.987 105.706 103.52 105.784C102.839 105.896 102.31 105.571 102.132 105.028C101.95 104.474 102.175 103.923 102.797 103.59C104.219 102.83 105.406 101.784 106.542 100.652C109.012 98.1941 109.665 95.2133 109.201 91.8603C108.765 88.7011 107.505 85.7861 106.573 82.7743C106.024 80.9912 105.537 79.2042 105.421 77.3319C105.402 77.0063 105.421 76.6807 105.456 76.3551C105.503 75.8861 105.758 75.5605 106.229 75.4752C106.732 75.3822 107.118 75.6148 107.296 76.0683C107.539 76.6885 107.709 77.3397 107.918 77.9754C108.962 81.1733 110.013 84.3713 111.049 87.5731C111.714 89.6275 112.189 91.7169 112.185 93.8992H112.189Z"
              fill="#F4F6FA"/>
        <path d="M74.4847 78.4754C75.2461 78.5258 75.9882 78.5685 76.7342 78.6305C77.5845 78.7003 78.1488 79.2468 78.1759 79.9988C78.2029 80.7741 77.658 81.433 76.7806 81.4602C75.4587 81.4989 74.1291 81.4718 72.8111 81.3749C71.9298 81.309 71.3539 80.5415 71.4196 79.6151C71.5974 77.1032 71.7946 74.5875 72.0149 72.0796C72.1927 70.0484 72.3975 68.0211 72.6294 65.9977C72.7261 65.141 72.9 64.2921 73.0855 63.451C73.2517 62.7145 73.8083 62.3268 74.4576 62.4121C75.0954 62.4974 75.5321 63.0168 75.4974 63.7843C75.4239 65.4356 75.3234 67.0908 75.2075 68.7382C75.0451 71.002 74.8557 73.2657 74.6857 75.5295C74.6122 76.5063 74.5504 77.4831 74.4847 78.4793V78.4754Z"
              fill="#7085EC"/>
        <path d="M64.3312 72.4905C62.7503 72.4168 61.4826 71.8586 60.6438 70.5174C60.5124 70.3081 60.4042 70.0755 60.3308 69.8391C60.1143 69.1142 60.4042 68.4126 61.0226 68.1219C61.6526 67.8273 62.3329 68.056 62.7619 68.7072C63.4151 69.6957 64.3698 69.9592 65.4095 69.3662C65.684 69.2111 65.9429 68.8584 66.0202 68.5483C66.2599 67.6141 66.7546 67.0985 67.5044 67.1644C68.2697 67.2303 68.8379 67.9552 68.7954 68.87C68.749 69.8856 68.3122 70.719 67.5238 71.3547C66.5768 72.1222 65.4675 72.4401 64.3234 72.4866L64.3312 72.4905Z"
              fill="#7085EC"/>
        <path d="M86.9691 72.4944C85.7245 72.4323 84.6345 72.1184 83.703 71.3625C82.8643 70.6803 82.416 69.7965 82.4237 68.7072C82.4314 67.8854 82.9957 67.2342 83.703 67.1683C84.4374 67.0986 85.0288 67.6025 85.1602 68.4901C85.2336 68.9941 85.5081 69.2732 85.9409 69.4592C86.9923 69.9127 87.8233 69.6724 88.4494 68.715C88.8784 68.0599 89.5548 67.8273 90.1849 68.118C90.8265 68.4126 91.1357 69.1375 90.8651 69.8817C90.3549 71.2888 89.2843 72.0602 87.8658 72.3781C87.5488 72.4478 87.2203 72.4633 86.9613 72.4944H86.9691Z"
              fill="#7085EC"/>
        <path d="M75.6134 87.8328C76.6068 88.0848 77.5808 88.2669 78.5084 88.5925C79.3201 88.8755 79.6254 89.6159 79.3626 90.2942C79.0998 90.9726 78.4079 91.2556 77.5846 90.9842C76.2666 90.5501 74.9641 90.5501 73.65 90.9842C72.8228 91.2556 72.1348 90.9726 71.872 90.2942C71.6092 89.6159 71.9145 88.8755 72.7262 88.5925C73.6538 88.2708 74.6278 88.0848 75.6212 87.8328H75.6134Z"
              fill="#7085EC"/>
        <path d="M63.3572 65.017C62.9359 64.7922 62.445 64.641 62.1126 64.3231C61.6372 63.8696 61.7725 63.0595 62.3329 62.6524C62.5919 62.4664 62.9011 62.3191 63.2103 62.2454C64.2539 61.9935 65.0192 61.3694 65.6415 60.5244C65.8463 60.2453 66.0434 59.9546 66.2947 59.722C66.7353 59.315 67.3653 59.2878 67.8407 59.6057C68.3045 59.9158 68.5365 60.4701 68.3509 61.0244C67.8832 62.4005 65.5642 64.9588 63.4345 64.8736C63.4074 64.9201 63.3842 64.9666 63.3572 65.0131V65.017Z"
              fill="#7085EC"/>
    </g>
    <defs>
        <clipPath id="clip0_93_267">
            <rect width="134" height="189" fill="white"/>
        </clipPath>
    </defs>
</svg>
